SplineFontDB: 3.2
FontName: Untitled1
FullName: Untitled1
FamilyName: Untitled1
Weight: Book
Copyright: Copyright (c) 2025, lukec
Version: 001.000
ItalicAngle: 0
UnderlinePosition: -100
UnderlineWidth: 50
Ascent: 800
Descent: 200
InvalidEm: 0
sfntRevision: 0x00010000
LayerCount: 2
Layer: 0 1 "Back" 1
Layer: 1 1 "Fore" 0
XUID: [1021 568 -906709678 4760]
StyleMap: 0x0000
FSType: 0
OS2Version: 4
OS2_WeightWidthSlopeOnly: 0
OS2_UseTypoMetrics: 1
CreationTime: 1754754270
ModificationTime: 1754822204
PfmFamily: 17
TTFWeight: 400
TTFWidth: 5
LineGap: 90
VLineGap: 0
Panose: 2 0 5 9 0 0 0 0 0 0
OS2TypoAscent: 800
OS2TypoAOffset: 0
OS2TypoDescent: -200
OS2TypoDOffset: 0
OS2TypoLinegap: 90
OS2WinAscent: 800
OS2WinAOffset: 0
OS2WinDescent: 200
OS2WinDOffset: 0
HheadAscent: 800
HheadAOffset: 0
HheadDescent: -200
HheadDOffset: 0
OS2SubXSize: 650
OS2SubYSize: 700
OS2SubXOff: 0
OS2SubYOff: 140
OS2SupXSize: 650
OS2SupYSize: 700
OS2SupXOff: 0
OS2SupYOff: 480
OS2StrikeYSize: 49
OS2StrikeYPos: 258
OS2CapHeight: 775
OS2Vendor: 'PfEd'
OS2CodePages: 00000001.00000000
OS2UnicodeRanges: 00000001.00000000.00000000.00000000
DEI: 91125
ShortTable: cvt  2
  33
  633
EndShort
ShortTable: maxp 16
  1
  0
  5
  52
  3
  0
  0
  2
  0
  1
  1
  0
  64
  46
  0
  0
EndShort
LangName: 1033 "" "" "Regular" "FontForge 2.0 : Untitled1 : 9-8-2025" "" "Version 001.000"
GaspTable: 1 65535 2 0
Encoding: UnicodeBmp
UnicodeInterp: none
NameList: AGL For New Fonts
DisplaySize: -48
AntiAlias: 1
FitToEm: 0
WinInfo: 38 38 14
BeginChars: 65539 39

StartChar: .notdef
Encoding: 65536 -1 0
Width: 1028
GlyphClass: 1
Flags: W
LayerCount: 2
Fore
SplineSet
33 0 m 1,0,-1
 33 666 l 1,1,-1
 298 666 l 1,2,-1
 298 0 l 1,3,-1
 33 0 l 1,0,-1
66 33 m 1,4,-1
 265 33 l 1,5,-1
 265 633 l 1,6,-1
 66 633 l 1,7,-1
 66 33 l 1,4,-1
EndSplineSet
EndChar

StartChar: A
Encoding: 65 65 3
Width: 1000
GlyphClass: 1
Flags: W
LayerCount: 2
Fore
SplineSet
191 750 m 1,0,-1
 808 750 l 1,1,-1
 808 728 l 1,2,-1
 852 728 l 1,3,-1
 852 684 l 1,4,-1
 874 684 l 1,5,-1
 874 67 l 1,6,-1
 852 67 l 1,7,-1
 852 23 l 1,8,-1
 808 23 l 1,9,-1
 808 0 l 1,10,-1
 720 0 l 1,11,-1
 720 23 l 1,12,-1
 676 23 l 1,13,-1
 676 67 l 1,14,-1
 654 67 l 1,15,-1
 654 177 l 1,16,-1
 632 177 l 1,17,-1
 632 199 l 1,18,-1
 367 199 l 1,19,-1
 367 177 l 1,20,-1
 345 177 l 1,21,-1
 345 67 l 1,22,-1
 323 67 l 1,23,-1
 323 23 l 1,24,-1
 279 23 l 1,25,-1
 279 0 l 1,26,-1
 191 0 l 1,27,-1
 191 23 l 1,28,-1
 147 23 l 1,29,-1
 147 67 l 1,30,31
 146 67 146 67 124 67 c 1,32,-1
 124 684 l 1,33,-1
 147 684 l 1,34,-1
 147 728 l 1,35,-1
 191 728 l 1,36,-1
 191 750 l 1,0,-1
367 530 m 1,37,-1
 367 508 l 1,38,-1
 345 508 l 1,39,-1
 345 442 l 1,40,-1
 367 442 l 1,41,-1
 367 420 l 1,42,-1
 632 420 l 1,43,-1
 632 442 l 1,44,-1
 654 442 l 1,45,-1
 654 508 l 1,46,-1
 632 508 l 1,47,-1
 632 530 l 1,48,-1
 367 530 l 1,37,-1
EndSplineSet
EndChar

StartChar: B
Encoding: 66 66 4
Width: 1000
GlyphClass: 1
Flags: W
LayerCount: 2
Fore
SplineSet
192 751 m 1,0,-1
 676 751 l 1,1,-1
 676 729 l 1,2,-1
 720 729 l 1,3,-1
 720 685 l 1,4,-1
 738 685 l 1,5,6
 742 673 742 673 742 614 c 2,7,-1
 742 487 l 1,8,-1
 760 487 l 1,9,10
 764 477 764 477 764 465 c 1,11,-1
 799 465 l 1,12,13
 807 450 807 450 808 443 c 1,14,-1
 852 443 l 1,15,-1
 852 398 l 1,16,-1
 874 398 l 1,17,-1
 874 73 l 1,18,19
 864 69 864 69 852 68 c 1,20,-1
 852 24 l 1,21,-1
 808 24 l 1,22,-1
 808 7 l 1,23,24
 792 1 792 1 758.5 0 c 128,-1,25
 725 -1 725 -1 677 0.5 c 128,-1,26
 629 2 629 2 619 2 c 2,27,-1
 192 2 l 1,28,-1
 192 24 l 1,29,-1
 148 24 l 1,30,-1
 148 68 l 1,31,-1
 126 68 l 1,32,-1
 126 685 l 1,33,-1
 148 685 l 1,34,-1
 148 729 l 1,35,-1
 192 729 l 1,36,-1
 192 751 l 1,0,-1
368 575 m 1,37,-1
 368 553 l 1,38,-1
 346 553 l 1,39,-1
 346 487 l 1,40,-1
 368 487 l 1,41,-1
 368 465 l 1,42,-1
 500 465 l 1,43,-1
 500 487 l 1,44,-1
 522 487 l 1,45,-1
 522 553 l 1,46,-1
 500 553 l 1,47,-1
 500 575 l 1,48,-1
 368 575 l 1,37,-1
368 288 m 1,49,-1
 368 266 l 1,50,-1
 346 266 l 1,51,-1
 346 200 l 1,52,-1
 368 200 l 1,53,-1
 368 178 l 1,54,-1
 632 178 l 1,55,-1
 632 200 l 1,56,-1
 654 200 l 1,57,-1
 654 266 l 1,58,-1
 632 266 l 1,59,-1
 632 288 l 1,60,-1
 368 288 l 1,49,-1
EndSplineSet
EndChar

StartChar: C
Encoding: 67 67 5
Width: 1000
LayerCount: 2
Fore
SplineSet
192 751 m 1,0,-1
 808 751 l 1,1,-1
 808 729 l 1,2,-1
 852 729 l 1,3,-1
 852 685 l 1,4,-1
 874 685 l 1,5,-1
 874 601 l 1,6,7
 864 597 864 597 852 597 c 1,8,-1
 852 553 l 1,9,-1
 808 553 l 1,10,-1
 808 535 l 1,11,12
 792 529 792 529 769 528 c 128,-1,13
 746 527 746 527 711.5 529 c 128,-1,14
 677 531 677 531 667 531 c 2,15,-1
 368 531 l 1,16,-1
 368 509 l 1,17,-1
 346 509 l 1,18,-1
 346 244 l 1,19,-1
 364 244 l 1,20,21
 368 234 368 234 368 222 c 1,22,-1
 808 222 l 1,23,-1
 808 200 l 1,24,-1
 852 200 l 1,25,-1
 852 156 l 1,26,-1
 874 156 l 1,27,-1
 874 46 l 1,28,-1
 852 46 l 1,29,-1
 852 33 l 1,30,31
 835 24 835 24 808 24 c 1,32,-1
 808 7 l 1,33,34
 792 1 792 1 758.5 0 c 128,-1,35
 725 -1 725 -1 677 0.5 c 128,-1,36
 629 2 629 2 619 2 c 2,37,-1
 192 2 l 1,38,-1
 192 24 l 1,39,-1
 148 24 l 1,40,-1
 148 68 l 1,41,-1
 126 68 l 1,42,-1
 126 685 l 1,43,-1
 148 685 l 1,44,-1
 148 729 l 1,45,-1
 192 729 l 1,46,-1
 192 751 l 1,0,-1
EndSplineSet
EndChar

StartChar: D
Encoding: 68 68 6
Width: 1000
LayerCount: 2
Fore
SplineSet
191 750 m 1,0,-1
 699 750 l 1,1,-1
 699 728 l 1,2,-1
 756 728 l 1,3,4
 764 713 764 713 765 706 c 1,5,-1
 804 706 l 1,6,7
 808 696 808 696 809 684 c 1,8,-1
 826 684 l 1,9,10
 831 671 831 671 831 640 c 1,11,-1
 844 640 l 1,12,-1
 853 631 l 1,13,-1
 853 574 l 1,14,-1
 875 574 l 1,15,-1
 875 176 l 1,16,-1
 853 176 l 1,17,-1
 853 119 l 1,18,19
 838 111 838 111 831 110 c 1,20,-1
 831 66 l 1,21,-1
 809 66 l 1,22,-1
 809 44 l 1,23,-1
 765 44 l 1,24,-1
 765 31 l 1,25,-1
 756 22 l 1,26,-1
 699 22 l 1,27,-1
 699 0 l 1,28,-1
 191 0 l 1,29,-1
 191 22 l 1,30,-1
 147 22 l 1,31,-1
 147 66 l 1,32,-1
 125 66 l 1,33,-1
 125 684 l 1,34,-1
 147 684 l 1,35,-1
 147 728 l 1,36,-1
 191 728 l 1,37,-1
 191 750 l 1,0,-1
368 529 m 1,38,-1
 368 507 l 1,39,-1
 346 507 l 1,40,-1
 346 243 l 1,41,-1
 363 243 l 1,42,43
 367 233 367 233 368 221 c 1,44,-1
 632 221 l 1,45,-1
 632 234 l 1,46,47
 647 242 647 242 654 243 c 1,48,-1
 654 507 l 1,49,-1
 637 507 l 1,50,51
 633 517 633 517 632 529 c 1,52,-1
 368 529 l 1,38,-1
EndSplineSet
EndChar

StartChar: E
Encoding: 69 69 7
Width: 1000
LayerCount: 2
Fore
SplineSet
191 750 m 1,0,-1
 809 750 l 1,1,-1
 809 728 l 1,2,-1
 853 728 l 1,3,-1
 853 684 l 1,4,-1
 875 684 l 1,5,-1
 875 600 l 1,6,7
 865 596 865 596 853 596 c 1,8,-1
 853 551 l 1,9,-1
 809 551 l 1,10,-1
 809 534 l 1,11,12
 794 529 794 529 769.5 527.5 c 128,-1,13
 745 526 745 526 708.5 527.5 c 128,-1,14
 672 529 672 529 663 529 c 2,15,-1
 346 529 l 1,16,-1
 346 485 l 1,17,-1
 610 485 l 1,18,-1
 610 463 l 1,19,-1
 654 463 l 1,20,-1
 654 419 l 1,21,-1
 668 419 l 1,22,23
 678 401 678 401 676 340 c 0,24,25
 673 337 673 337 672 331 c 1,26,-1
 654 331 l 1,27,-1
 654 287 l 1,28,-1
 610 287 l 1,29,-1
 610 265 l 1,30,-1
 346 265 l 1,31,-1
 346 221 l 1,32,-1
 809 221 l 1,33,-1
 809 199 l 1,34,-1
 853 199 l 1,35,-1
 853 154 l 1,36,-1
 875 154 l 1,37,-1
 875 71 l 1,38,39
 865 67 865 67 853 66 c 1,40,-1
 853 22 l 1,41,-1
 809 22 l 1,42,-1
 809 4 l 1,43,-1
 804 4 l 1,44,-1
 804 0 l 1,45,-1
 191 0 l 1,46,-1
 191 22 l 1,47,-1
 147 22 l 1,48,-1
 147 66 l 1,49,-1
 125 66 l 1,50,-1
 125 684 l 1,51,-1
 147 684 l 1,52,-1
 147 728 l 1,53,-1
 191 728 l 1,54,-1
 191 750 l 1,0,-1
EndSplineSet
EndChar

StartChar: F
Encoding: 70 70 8
Width: 1000
LayerCount: 2
Fore
SplineSet
191 750 m 1,0,-1
 809 750 l 1,1,-1
 809 728 l 1,2,-1
 853 728 l 1,3,-1
 853 684 l 1,4,-1
 875 684 l 1,5,-1
 875 596 l 1,6,-1
 853 596 l 1,7,-1
 853 551 l 1,8,-1
 809 551 l 1,9,-1
 809 529 l 1,10,-1
 346 529 l 1,11,-1
 346 485 l 1,12,-1
 610 485 l 1,13,-1
 610 463 l 1,14,-1
 654 463 l 1,15,-1
 654 419 l 1,16,-1
 676 419 l 1,17,-1
 676 331 l 1,18,-1
 654 331 l 1,19,-1
 654 287 l 1,20,-1
 610 287 l 1,21,-1
 610 265 l 1,22,-1
 346 265 l 1,23,-1
 346 66 l 1,24,-1
 324 66 l 1,25,-1
 324 22 l 1,26,-1
 279 22 l 1,27,-1
 279 0 l 1,28,-1
 191 0 l 1,29,-1
 191 22 l 1,30,-1
 147 22 l 1,31,-1
 147 66 l 1,32,-1
 125 66 l 1,33,-1
 125 684 l 1,34,-1
 147 684 l 1,35,-1
 147 728 l 1,36,-1
 191 728 l 1,37,-1
 191 750 l 1,0,-1
EndSplineSet
EndChar

StartChar: G
Encoding: 71 71 9
Width: 1000
LayerCount: 2
Fore
SplineSet
192 751 m 1,0,-1
 808 751 l 1,1,-1
 808 729 l 1,2,-1
 852 729 l 1,3,-1
 852 685 l 1,4,-1
 874 685 l 1,5,-1
 874 601 l 1,6,7
 864 597 864 597 852 597 c 1,8,-1
 852 553 l 1,9,-1
 808 553 l 1,10,-1
 808 535 l 2,11,12
 806 533 806 533 804 531 c 2,13,-1
 368 531 l 1,14,-1
 368 509 l 1,15,-1
 346 509 l 1,16,-1
 346 244 l 1,17,-1
 364 244 l 1,18,19
 368 234 368 234 368 222 c 1,20,-1
 632 222 l 1,21,-1
 632 236 l 1,22,23
 647 244 647 244 654 244 c 1,24,-1
 654 376 l 1,25,-1
 676 376 l 1,26,-1
 676 420 l 1,27,-1
 720 420 l 1,28,-1
 720 443 l 1,29,-1
 804 443 l 1,30,31
 808 433 808 433 808 420 c 1,32,-1
 852 420 l 1,33,-1
 852 376 l 1,34,-1
 874 376 l 1,35,-1
 874 73 l 1,36,37
 864 69 864 69 852 68 c 1,38,-1
 852 24 l 1,39,-1
 808 24 l 1,40,-1
 808 7 l 1,41,42
 792 1 792 1 758.5 0 c 128,-1,43
 725 -1 725 -1 677 0.5 c 128,-1,44
 629 2 629 2 619 2 c 2,45,-1
 192 2 l 1,46,-1
 192 24 l 1,47,-1
 148 24 l 1,48,-1
 148 68 l 1,49,-1
 126 68 l 1,50,-1
 126 685 l 1,51,-1
 148 685 l 1,52,-1
 148 729 l 1,53,-1
 192 729 l 1,54,-1
 192 751 l 1,0,-1
EndSplineSet
EndChar

StartChar: H
Encoding: 72 72 10
Width: 1000
LayerCount: 2
Fore
SplineSet
192 750 m 1,0,-1
 280 750 l 1,1,-1
 280 728 l 1,2,-1
 324 728 l 1,3,-1
 324 684 l 1,4,-1
 346 684 l 1,5,-1
 346 508 l 1,6,-1
 364 508 l 1,7,8
 368 498 368 498 368 486 c 1,9,-1
 633 486 l 1,10,-1
 633 499 l 1,11,12
 648 507 648 507 655 508 c 1,13,-1
 655 684 l 1,14,-1
 677 684 l 1,15,-1
 677 728 l 1,16,-1
 721 728 l 1,17,-1
 721 750 l 1,18,-1
 809 750 l 1,19,-1
 809 728 l 1,20,-1
 853 728 l 1,21,-1
 853 684 l 1,22,-1
 875 684 l 1,23,-1
 875 71 l 2,24,25
 873 69 873 69 871 67 c 2,26,-1
 853 67 l 1,27,-1
 853 23 l 1,28,-1
 809 23 l 1,29,-1
 809 5 l 1,30,31
 796 0 796 0 721 1 c 1,32,-1
 721 23 l 1,33,-1
 677 23 l 1,34,-1
 677 67 l 1,35,-1
 655 67 l 1,36,-1
 655 243 l 1,37,-1
 637 243 l 1,38,39
 633 253 633 253 633 265 c 1,40,-1
 368 265 l 1,41,-1
 368 243 l 1,42,-1
 346 243 l 1,43,-1
 346 71 l 1,44,45
 336 67 336 67 324 67 c 1,46,-1
 324 23 l 1,47,-1
 280 23 l 1,48,-1
 280 5 l 1,49,50
 267 0 267 0 192 1 c 1,51,-1
 192 23 l 1,52,-1
 148 23 l 1,53,-1
 148 67 l 1,54,-1
 126 67 l 1,55,-1
 126 684 l 1,56,-1
 148 684 l 1,57,-1
 148 728 l 1,58,-1
 192 728 l 1,59,-1
 192 750 l 1,0,-1
EndSplineSet
EndChar

StartChar: I
Encoding: 73 73 11
Width: 1000
LayerCount: 2
Fore
SplineSet
192 750 m 1,0,-1
 280 750 l 1,1,-1
 280 728 l 1,2,-1
 324 728 l 1,3,-1
 324 684 l 1,4,-1
 346 684 l 1,5,-1
 346 508 l 1,6,-1
 364 508 l 1,7,8
 368 498 368 498 368 486 c 1,9,-1
 633 486 l 1,10,-1
 633 499 l 1,11,12
 648 507 648 507 655 508 c 1,13,-1
 655 684 l 1,14,-1
 677 684 l 1,15,-1
 677 728 l 1,16,-1
 721 728 l 1,17,-1
 721 750 l 1,18,-1
 809 750 l 1,19,-1
 809 728 l 1,20,-1
 853 728 l 1,21,-1
 853 684 l 1,22,-1
 875 684 l 1,23,-1
 875 71 l 2,24,25
 873 69 873 69 871 67 c 2,26,-1
 853 67 l 1,27,-1
 853 23 l 1,28,-1
 809 23 l 1,29,-1
 809 5 l 1,30,31
 796 0 796 0 721 1 c 1,32,-1
 721 23 l 1,33,-1
 677 23 l 1,34,-1
 677 67 l 1,35,-1
 655 67 l 1,36,-1
 655 243 l 1,37,-1
 637 243 l 1,38,39
 633 253 633 253 633 265 c 1,40,-1
 368 265 l 1,41,-1
 368 243 l 1,42,-1
 346 243 l 1,43,-1
 346 71 l 1,44,45
 336 67 336 67 324 67 c 1,46,-1
 324 23 l 1,47,-1
 280 23 l 1,48,-1
 280 5 l 1,49,50
 267 0 267 0 192 1 c 1,51,-1
 192 23 l 1,52,-1
 148 23 l 1,53,-1
 148 67 l 1,54,-1
 126 67 l 1,55,-1
 126 684 l 1,56,-1
 148 684 l 1,57,-1
 148 728 l 1,58,-1
 192 728 l 1,59,-1
 192 750 l 1,0,-1
EndSplineSet
EndChar

StartChar: J
Encoding: 74 74 12
Width: 1000
LayerCount: 2
Fore
SplineSet
191 750 m 1,0,-1
 809 750 l 1,1,-1
 809 728 l 1,2,-1
 853 728 l 1,3,-1
 853 684 l 1,4,-1
 875 684 l 1,5,-1
 875 600 l 1,6,7
 865 596 865 596 853 596 c 1,8,-1
 853 551 l 1,9,-1
 809 551 l 1,10,-1
 809 534 l 1,11,12
 794 528 794 528 763 527 c 128,-1,13
 732 526 732 526 685.5 527.5 c 128,-1,14
 639 529 639 529 632 529 c 1,15,-1
 632 507 l 1,16,-1
 610 507 l 1,17,-1
 610 243 l 1,18,-1
 628 243 l 1,19,20
 632 233 632 233 632 221 c 1,21,-1
 809 221 l 1,22,-1
 809 199 l 1,23,-1
 853 199 l 1,24,-1
 853 154 l 1,25,-1
 875 154 l 1,26,-1
 875 71 l 1,27,28
 865 67 865 67 853 66 c 1,29,-1
 853 22 l 1,30,-1
 809 22 l 1,31,-1
 809 4 l 2,32,33
 807 2 807 2 804 0 c 2,34,-1
 191 0 l 1,35,-1
 191 22 l 1,36,-1
 147 22 l 1,37,-1
 147 66 l 1,38,-1
 125 66 l 1,39,-1
 125 154 l 1,40,-1
 147 154 l 1,41,-1
 147 199 l 1,42,-1
 191 199 l 1,43,-1
 191 221 l 1,44,-1
 368 221 l 1,45,-1
 368 234 l 1,46,47
 383 242 383 242 390 243 c 1,48,-1
 390 507 l 1,49,-1
 372 507 l 1,50,51
 368 517 368 517 368 529 c 1,52,-1
 191 529 l 1,53,-1
 191 551 l 1,54,-1
 147 551 l 1,55,-1
 147 596 l 1,56,-1
 125 596 l 1,57,-1
 125 684 l 1,58,-1
 147 684 l 1,59,-1
 147 728 l 1,60,-1
 191 728 l 1,61,-1
 191 750 l 1,0,-1
EndSplineSet
EndChar

StartChar: K
Encoding: 75 75 13
Width: 1000
LayerCount: 2
Fore
SplineSet
191 750 m 1,0,-1
 279 750 l 1,1,-1
 279 728 l 1,2,-1
 324 728 l 1,3,-1
 324 684 l 1,4,-1
 346 684 l 1,5,-1
 346 485 l 1,6,-1
 368 485 l 1,7,-1
 368 463 l 1,8,-1
 500 463 l 1,9,-1
 500 485 l 1,10,-1
 522 485 l 1,11,-1
 522 684 l 1,12,-1
 544 684 l 1,13,-1
 544 728 l 1,14,-1
 588 728 l 1,15,-1
 588 750 l 1,16,-1
 676 750 l 1,17,-1
 676 728 l 1,18,-1
 721 728 l 1,19,-1
 721 684 l 1,20,-1
 738 684 l 1,21,22
 742 672 742 672 743 613 c 2,23,-1
 743 485 l 1,24,-1
 765 485 l 1,25,-1
 765 463 l 1,26,-1
 809 463 l 1,27,-1
 809 441 l 1,28,-1
 853 441 l 1,29,-1
 853 397 l 1,30,-1
 875 397 l 1,31,-1
 875 66 l 1,32,-1
 853 66 l 1,33,-1
 853 22 l 1,34,-1
 809 22 l 1,35,-1
 809 0 l 1,36,-1
 721 0 l 1,37,-1
 721 22 l 1,38,-1
 676 22 l 1,39,-1
 676 66 l 1,40,-1
 654 66 l 1,41,-1
 654 265 l 1,42,-1
 632 265 l 1,43,-1
 632 287 l 1,44,-1
 368 287 l 1,45,-1
 368 265 l 1,46,-1
 346 265 l 1,47,-1
 346 66 l 1,48,-1
 324 66 l 1,49,-1
 324 22 l 1,50,-1
 279 22 l 1,51,-1
 279 0 l 1,52,-1
 191 0 l 1,53,-1
 191 22 l 1,54,-1
 147 22 l 1,55,-1
 147 66 l 1,56,-1
 125 66 l 1,57,-1
 125 684 l 1,58,-1
 147 684 l 1,59,-1
 147 728 l 1,60,-1
 191 728 l 1,61,-1
 191 750 l 1,0,-1
EndSplineSet
EndChar

StartChar: L
Encoding: 76 76 14
Width: 1000
LayerCount: 2
Fore
SplineSet
191 750 m 1,0,-1
 279 750 l 1,1,-1
 279 728 l 1,2,-1
 324 728 l 1,3,-1
 324 684 l 1,4,-1
 346 684 l 1,5,-1
 346 243 l 1,6,-1
 363 243 l 1,7,8
 367 233 367 233 368 221 c 1,9,-1
 809 221 l 1,10,-1
 809 199 l 1,11,-1
 853 199 l 1,12,-1
 853 154 l 1,13,-1
 875 154 l 1,14,-1
 875 71 l 1,15,16
 865 67 865 67 853 66 c 1,17,-1
 853 22 l 1,18,-1
 809 22 l 1,19,-1
 809 4 l 1,20,-1
 804 4 l 1,21,-1
 804 0 l 1,22,-1
 191 0 l 1,23,-1
 191 22 l 1,24,-1
 147 22 l 1,25,-1
 147 66 l 1,26,-1
 125 66 l 1,27,-1
 125 684 l 1,28,-1
 147 684 l 1,29,-1
 147 728 l 1,30,-1
 191 728 l 1,31,-1
 191 750 l 1,0,-1
EndSplineSet
EndChar

StartChar: M
Encoding: 77 77 15
Width: 1000
LayerCount: 2
Fore
SplineSet
192 750 m 1,0,-1
 808 750 l 1,1,-1
 808 728 l 1,2,-1
 853 728 l 1,3,-1
 853 684 l 1,4,-1
 875 684 l 1,5,-1
 875 72 l 1,6,7
 865 68 865 68 853 67 c 1,8,-1
 853 23 l 1,9,-1
 808 23 l 1,10,-1
 808 6 l 1,11,12
 795 1 795 1 720 1 c 1,13,-1
 720 23 l 1,14,-1
 676 23 l 1,15,-1
 676 67 l 1,16,-1
 654 67 l 1,17,-1
 654 530 l 1,18,-1
 610 530 l 1,19,-1
 610 266 l 1,20,-1
 588 266 l 1,21,-1
 588 222 l 1,22,-1
 544 222 l 1,23,-1
 544 204 l 1,24,25
 519 199 519 199 465 200 c 1,26,27
 457 215 457 215 456 222 c 1,28,-1
 412 222 l 1,29,-1
 412 266 l 1,30,-1
 390 266 l 1,31,-1
 390 530 l 1,32,-1
 346 530 l 1,33,-1
 346 72 l 1,34,35
 336 68 336 68 324 67 c 1,36,-1
 324 23 l 1,37,-1
 280 23 l 1,38,-1
 280 6 l 1,39,40
 268 2 268 2 251 0.5 c 128,-1,41
 234 -1 234 -1 203.5 0 c 128,-1,42
 173 1 173 1 169 1 c 2,43,-1
 169 23 l 1,44,-1
 156 23 l 1,45,46
 147 40 147 40 147 67 c 1,47,-1
 125 67 l 1,48,-1
 125 684 l 1,49,-1
 147 684 l 1,50,-1
 147 728 l 1,51,-1
 192 728 l 1,52,-1
 192 750 l 1,0,-1
EndSplineSet
EndChar

StartChar: N
Encoding: 78 78 16
Width: 1000
LayerCount: 2
Fore
SplineSet
192 750 m 1,0,-1
 324 750 l 1,1,-1
 324 728 l 1,2,-1
 359 728 l 1,3,4
 367 713 367 713 368 706 c 1,5,-1
 390 706 l 1,6,-1
 390 662 l 1,7,-1
 407 662 l 1,8,9
 411 652 411 652 412 640 c 1,10,-1
 429 640 l 1,11,12
 433 630 433 630 434 618 c 1,13,-1
 451 618 l 1,14,15
 456 606 456 606 456 574 c 1,16,-1
 478 574 l 1,17,-1
 478 552 l 1,18,-1
 491 552 l 1,19,20
 499 537 499 537 500 530 c 1,21,-1
 522 530 l 1,22,-1
 522 486 l 1,23,-1
 539 486 l 1,24,25
 543 476 543 476 544 464 c 1,26,-1
 562 464 l 1,27,28
 566 454 566 454 566 442 c 1,29,-1
 584 442 l 1,30,31
 588 432 588 432 588 420 c 1,32,-1
 632 420 l 1,33,-1
 632 438 l 1,34,35
 642 442 642 442 654 442 c 1,36,-1
 654 684 l 1,37,-1
 676 684 l 1,38,-1
 676 728 l 1,39,-1
 720 728 l 1,40,-1
 720 750 l 1,41,-1
 808 750 l 1,42,-1
 808 728 l 1,43,-1
 852 728 l 1,44,-1
 852 684 l 1,45,-1
 874 684 l 1,46,-1
 874 72 l 1,47,48
 864 68 864 68 852 68 c 1,49,-1
 852 24 l 1,50,-1
 808 24 l 1,51,-1
 808 6 l 1,52,53
 794 1 794 1 772.5 0 c 128,-1,54
 751 -1 751 -1 717.5 0.5 c 128,-1,55
 684 2 684 2 676 2 c 1,56,-1
 676 24 l 1,57,-1
 641 24 l 1,58,59
 633 39 633 39 632 46 c 1,60,-1
 610 46 l 1,61,-1
 610 90 l 1,62,-1
 592 90 l 1,63,64
 588 100 588 100 588 112 c 1,65,-1
 570 112 l 1,66,67
 566 122 566 122 566 134 c 1,68,-1
 548 134 l 1,69,70
 543 147 543 147 544 178 c 1,71,-1
 522 178 l 1,72,-1
 522 200 l 1,73,-1
 509 200 l 1,74,75
 501 215 501 215 500 222 c 1,76,-1
 478 222 l 1,77,-1
 478 266 l 1,78,-1
 460 266 l 1,79,80
 456 276 456 276 456 288 c 1,81,-1
 438 288 l 1,82,83
 434 298 434 298 434 310 c 1,84,-1
 416 310 l 1,85,86
 412 320 412 320 412 332 c 1,87,-1
 368 332 l 1,88,-1
 368 310 l 1,89,-1
 346 310 l 1,90,-1
 346 72 l 1,91,92
 336 68 336 68 324 68 c 1,93,-1
 324 24 l 1,94,-1
 280 24 l 1,95,-1
 280 6 l 1,96,97
 267 1 267 1 192 2 c 1,98,-1
 192 24 l 1,99,-1
 148 24 l 1,100,-1
 148 68 l 1,101,-1
 125 68 l 1,102,-1
 125 684 l 1,103,-1
 148 684 l 1,104,-1
 148 728 l 1,105,-1
 192 728 l 1,106,-1
 192 750 l 1,0,-1
EndSplineSet
EndChar

StartChar: O
Encoding: 79 79 17
Width: 1000
LayerCount: 2
Fore
SplineSet
192 751 m 1,0,-1
 808 751 l 1,1,-1
 808 729 l 1,2,-1
 852 729 l 1,3,-1
 852 685 l 1,4,-1
 874 685 l 1,5,-1
 874 73 l 1,6,7
 864 69 864 69 852 68 c 1,8,-1
 852 24 l 1,9,-1
 808 24 l 1,10,-1
 808 7 l 1,11,12
 792 1 792 1 758.5 0 c 128,-1,13
 725 -1 725 -1 677 0.5 c 128,-1,14
 629 2 629 2 619 2 c 2,15,-1
 192 2 l 1,16,-1
 192 24 l 1,17,-1
 148 24 l 1,18,-1
 148 68 l 1,19,-1
 126 68 l 1,20,-1
 126 685 l 1,21,-1
 148 685 l 1,22,-1
 148 729 l 1,23,-1
 192 729 l 1,24,-1
 192 751 l 1,0,-1
368 531 m 1,25,-1
 368 509 l 1,26,-1
 346 509 l 1,27,-1
 346 244 l 1,28,-1
 364 244 l 1,29,30
 368 234 368 234 368 222 c 1,31,-1
 632 222 l 1,32,-1
 632 236 l 1,33,34
 647 244 647 244 654 244 c 1,35,-1
 654 509 l 1,36,-1
 636 509 l 1,37,38
 632 519 632 519 632 531 c 1,39,-1
 368 531 l 1,25,-1
EndSplineSet
EndChar

StartChar: Q
Encoding: 81 81 18
Width: 1000
LayerCount: 2
Fore
SplineSet
192 751 m 1,0,-1
 808 751 l 1,1,-1
 808 729 l 1,2,-1
 852 729 l 1,3,-1
 852 685 l 1,4,-1
 874 685 l 1,5,-1
 874 73 l 1,6,7
 864 69 864 69 852 68 c 1,8,-1
 852 24 l 1,9,-1
 808 24 l 1,10,-1
 808 7 l 1,11,12
 792 1 792 1 758.5 0 c 128,-1,13
 725 -1 725 -1 677 0.5 c 128,-1,14
 629 2 629 2 619 2 c 2,15,-1
 192 2 l 1,16,-1
 192 24 l 1,17,-1
 148 24 l 1,18,-1
 148 68 l 1,19,-1
 126 68 l 1,20,-1
 126 685 l 1,21,-1
 148 685 l 1,22,-1
 148 729 l 1,23,-1
 192 729 l 1,24,-1
 192 751 l 1,0,-1
368 531 m 1,25,-1
 368 509 l 1,26,-1
 346 509 l 1,27,-1
 346 244 l 1,28,-1
 368 244 l 1,29,-1
 368 222 l 1,30,-1
 522 222 l 1,31,-1
 522 288 l 1,32,-1
 544 288 l 1,33,-1
 544 332 l 1,34,-1
 588 332 l 1,35,-1
 588 354 l 1,36,-1
 654 354 l 1,37,-1
 654 509 l 1,38,-1
 632 509 l 1,39,-1
 632 531 l 1,40,-1
 368 531 l 1,25,-1
EndSplineSet
EndChar

StartChar: P
Encoding: 80 80 19
Width: 1000
LayerCount: 2
Fore
SplineSet
191 750 m 1,0,-1
 809 750 l 1,1,-1
 809 728 l 1,2,-1
 853 728 l 1,3,-1
 853 684 l 1,4,-1
 875 684 l 1,5,-1
 875 265 l 1,6,-1
 853 265 l 1,7,-1
 853 221 l 1,8,-1
 809 221 l 1,9,-1
 809 199 l 1,10,-1
 368 199 l 1,11,-1
 368 177 l 1,12,-1
 346 177 l 1,13,-1
 346 66 l 1,14,-1
 324 66 l 1,15,-1
 324 22 l 1,16,-1
 279 22 l 1,17,-1
 279 0 l 1,18,-1
 191 0 l 1,19,-1
 191 22 l 1,20,-1
 147 22 l 1,21,-1
 147 66 l 1,22,-1
 125 66 l 1,23,-1
 125 684 l 1,24,-1
 147 684 l 1,25,-1
 147 728 l 1,26,-1
 191 728 l 1,27,-1
 191 750 l 1,0,-1
368 529 m 1,28,-1
 368 507 l 1,29,-1
 346 507 l 1,30,-1
 346 441 l 1,31,-1
 368 441 l 1,32,-1
 368 419 l 1,33,-1
 632 419 l 1,34,-1
 632 441 l 1,35,-1
 654 441 l 1,36,-1
 654 507 l 1,37,-1
 632 507 l 1,38,-1
 632 529 l 1,39,-1
 368 529 l 1,28,-1
EndSplineSet
EndChar

StartChar: S
Encoding: 83 83 20
Width: 1000
LayerCount: 2
Fore
SplineSet
191 750 m 1,0,-1
 809 750 l 1,1,-1
 809 728 l 1,2,-1
 853 728 l 1,3,-1
 853 684 l 1,4,-1
 875 684 l 1,5,-1
 875 596 l 1,6,-1
 853 596 l 1,7,-1
 853 551 l 1,8,-1
 809 551 l 1,9,-1
 809 529 l 1,10,-1
 346 529 l 1,11,-1
 346 485 l 1,12,-1
 809 485 l 1,13,-1
 809 463 l 1,14,-1
 853 463 l 1,15,-1
 853 419 l 1,16,-1
 875 419 l 1,17,-1
 875 66 l 1,18,-1
 853 66 l 1,19,-1
 853 22 l 1,20,-1
 809 22 l 1,21,-1
 809 0 l 1,22,-1
 191 0 l 1,23,-1
 191 22 l 1,24,-1
 147 22 l 1,25,-1
 147 66 l 1,26,-1
 125 66 l 1,27,-1
 125 154 l 1,28,-1
 147 154 l 1,29,-1
 147 199 l 1,30,-1
 191 199 l 1,31,-1
 191 221 l 1,32,-1
 654 221 l 1,33,-1
 654 265 l 1,34,-1
 191 265 l 1,35,-1
 191 287 l 1,36,-1
 147 287 l 1,37,-1
 147 331 l 1,38,-1
 125 331 l 1,39,-1
 125 684 l 1,40,-1
 147 684 l 1,41,-1
 147 728 l 1,42,-1
 191 728 l 1,43,-1
 191 750 l 1,0,-1
EndSplineSet
EndChar

StartChar: R
Encoding: 82 82 21
Width: 1000
LayerCount: 2
Fore
SplineSet
191 750 m 1,0,-1
 676 750 l 1,1,-1
 676 728 l 1,2,-1
 721 728 l 1,3,-1
 721 684 l 1,4,-1
 738 684 l 1,5,6
 742 672 742 672 743 613 c 2,7,-1
 743 485 l 1,8,-1
 765 485 l 1,9,-1
 765 463 l 1,10,-1
 809 463 l 1,11,-1
 809 441 l 1,12,-1
 853 441 l 1,13,-1
 853 397 l 1,14,-1
 875 397 l 1,15,-1
 875 66 l 1,16,-1
 853 66 l 1,17,-1
 853 22 l 1,18,-1
 809 22 l 1,19,-1
 809 0 l 1,20,-1
 721 0 l 1,21,-1
 721 22 l 1,22,-1
 676 22 l 1,23,-1
 676 66 l 1,24,-1
 654 66 l 1,25,-1
 654 265 l 1,26,-1
 632 265 l 1,27,-1
 632 287 l 1,28,-1
 368 287 l 1,29,-1
 368 265 l 1,30,-1
 346 265 l 1,31,-1
 346 66 l 1,32,-1
 324 66 l 1,33,-1
 324 22 l 1,34,-1
 279 22 l 1,35,-1
 279 0 l 1,36,-1
 191 0 l 1,37,-1
 191 22 l 1,38,-1
 147 22 l 1,39,-1
 147 66 l 1,40,-1
 125 66 l 1,41,-1
 125 684 l 1,42,-1
 147 684 l 1,43,-1
 147 728 l 1,44,-1
 191 728 l 1,45,-1
 191 750 l 1,0,-1
368 551 m 1,46,-1
 368 529 l 1,47,-1
 346 529 l 1,48,-1
 346 463 l 1,49,-1
 368 463 l 1,50,-1
 368 441 l 1,51,-1
 500 441 l 1,52,-1
 500 463 l 1,53,-1
 522 463 l 1,54,-1
 522 529 l 1,55,-1
 500 529 l 1,56,-1
 500 551 l 1,57,-1
 368 551 l 1,46,-1
EndSplineSet
EndChar

StartChar: T
Encoding: 84 84 22
Width: 1000
LayerCount: 2
Fore
SplineSet
191 750 m 1,0,-1
 809 750 l 1,1,-1
 809 728 l 1,2,-1
 853 728 l 1,3,-1
 853 684 l 1,4,-1
 875 684 l 1,5,-1
 875 596 l 1,6,-1
 853 596 l 1,7,-1
 853 551 l 1,8,-1
 809 551 l 1,9,-1
 809 529 l 1,10,-1
 632 529 l 1,11,-1
 632 507 l 1,12,-1
 610 507 l 1,13,-1
 610 66 l 1,14,-1
 588 66 l 1,15,-1
 588 22 l 1,16,-1
 544 22 l 1,17,-1
 544 0 l 1,18,-1
 456 0 l 1,19,-1
 456 22 l 1,20,-1
 412 22 l 1,21,-1
 412 66 l 1,22,-1
 390 66 l 1,23,-1
 390 507 l 1,24,-1
 368 507 l 1,25,-1
 368 529 l 1,26,-1
 191 529 l 1,27,-1
 191 551 l 1,28,-1
 147 551 l 1,29,-1
 147 596 l 1,30,-1
 125 596 l 1,31,-1
 125 684 l 1,32,-1
 147 684 l 1,33,-1
 147 728 l 1,34,-1
 191 728 l 1,35,-1
 191 750 l 1,0,-1
EndSplineSet
EndChar

StartChar: U
Encoding: 85 85 23
Width: 1000
LayerCount: 2
Fore
SplineSet
191 750 m 1,0,-1
 279 750 l 1,1,-1
 279 728 l 1,2,-1
 324 728 l 1,3,-1
 324 684 l 1,4,-1
 346 684 l 1,5,-1
 346 243 l 1,6,-1
 368 243 l 1,7,-1
 368 221 l 1,8,-1
 632 221 l 1,9,-1
 632 243 l 1,10,-1
 654 243 l 1,11,-1
 654 684 l 1,12,-1
 676 684 l 1,13,-1
 676 728 l 1,14,-1
 721 728 l 1,15,-1
 721 750 l 1,16,-1
 831 750 l 1,17,-1
 831 728 l 1,18,-1
 853 728 l 1,19,-1
 853 684 l 1,20,-1
 875 684 l 1,21,-1
 875 66 l 1,22,-1
 853 66 l 1,23,-1
 853 22 l 1,24,-1
 809 22 l 1,25,-1
 809 0 l 1,26,-1
 191 0 l 1,27,-1
 191 22 l 1,28,-1
 147 22 l 1,29,-1
 147 66 l 1,30,-1
 125 66 l 1,31,-1
 125 684 l 1,32,-1
 147 684 l 1,33,-1
 147 728 l 1,34,-1
 191 728 l 1,35,-1
 191 750 l 1,0,-1
EndSplineSet
EndChar

StartChar: V
Encoding: 86 86 24
Width: 1000
LayerCount: 2
Fore
SplineSet
191 750 m 1,0,-1
 279 750 l 1,1,-1
 279 728 l 1,2,-1
 324 728 l 1,3,-1
 324 684 l 1,4,-1
 346 684 l 1,5,-1
 346 353 l 1,6,-1
 368 353 l 1,7,-1
 368 309 l 1,8,-1
 390 309 l 1,9,-1
 390 287 l 1,10,-1
 412 287 l 1,11,-1
 412 265 l 1,12,-1
 434 265 l 1,13,-1
 434 243 l 1,14,-1
 478 243 l 1,15,-1
 478 221 l 1,16,-1
 522 221 l 1,17,-1
 522 243 l 1,18,-1
 566 243 l 1,19,-1
 566 265 l 1,20,-1
 588 265 l 1,21,-1
 588 287 l 1,22,-1
 610 287 l 1,23,-1
 610 309 l 1,24,-1
 632 309 l 1,25,-1
 632 353 l 1,26,-1
 654 353 l 1,27,-1
 654 684 l 1,28,-1
 676 684 l 1,29,-1
 676 728 l 1,30,-1
 721 728 l 1,31,-1
 721 750 l 1,32,-1
 809 750 l 1,33,-1
 809 728 l 1,34,-1
 853 728 l 1,35,-1
 853 684 l 1,36,-1
 875 684 l 1,37,-1
 875 221 l 1,38,-1
 853 221 l 1,39,-1
 853 176 l 1,40,-1
 831 176 l 1,41,-1
 831 154 l 1,42,-1
 809 154 l 1,43,-1
 809 132 l 1,44,-1
 787 132 l 1,45,-1
 787 110 l 1,46,-1
 765 110 l 1,47,-1
 765 88 l 1,48,-1
 743 88 l 1,49,-1
 743 66 l 1,50,-1
 721 66 l 1,51,-1
 721 44 l 1,52,-1
 699 44 l 1,53,-1
 699 22 l 1,54,-1
 654 22 l 1,55,-1
 654 0 l 1,56,-1
 346 0 l 1,57,-1
 346 22 l 1,58,-1
 301 22 l 1,59,-1
 301 44 l 1,60,-1
 279 44 l 1,61,-1
 279 66 l 1,62,-1
 257 66 l 1,63,-1
 257 88 l 1,64,-1
 235 88 l 1,65,-1
 235 110 l 1,66,-1
 213 110 l 1,67,-1
 213 132 l 1,68,-1
 191 132 l 1,69,-1
 191 154 l 1,70,-1
 169 154 l 1,71,-1
 169 176 l 1,72,-1
 147 176 l 1,73,-1
 147 221 l 1,74,-1
 125 221 l 1,75,-1
 125 684 l 1,76,-1
 147 684 l 1,77,-1
 147 728 l 1,78,-1
 191 728 l 1,79,-1
 191 750 l 1,0,-1
EndSplineSet
EndChar

StartChar: W
Encoding: 87 87 25
Width: 1000
LayerCount: 2
Fore
SplineSet
191 750 m 1,0,-1
 279 750 l 1,1,-1
 279 728 l 1,2,-1
 324 728 l 1,3,-1
 324 684 l 1,4,-1
 346 684 l 1,5,-1
 346 221 l 1,6,-1
 390 221 l 1,7,-1
 390 485 l 1,8,-1
 412 485 l 1,9,-1
 412 529 l 1,10,-1
 456 529 l 1,11,-1
 456 551 l 1,12,-1
 544 551 l 1,13,-1
 544 529 l 1,14,-1
 588 529 l 1,15,-1
 588 485 l 1,16,-1
 610 485 l 1,17,-1
 610 221 l 1,18,-1
 654 221 l 1,19,-1
 654 684 l 1,20,-1
 676 684 l 1,21,-1
 676 728 l 1,22,-1
 721 728 l 1,23,-1
 721 750 l 1,24,-1
 809 750 l 1,25,-1
 809 728 l 1,26,-1
 853 728 l 1,27,-1
 853 684 l 1,28,-1
 875 684 l 1,29,-1
 875 66 l 1,30,-1
 853 66 l 1,31,-1
 853 22 l 1,32,-1
 809 22 l 1,33,-1
 809 0 l 1,34,-1
 191 0 l 1,35,-1
 191 22 l 1,36,-1
 147 22 l 1,37,-1
 147 66 l 1,38,-1
 125 66 l 1,39,-1
 125 684 l 1,40,-1
 147 684 l 1,41,-1
 147 728 l 1,42,-1
 191 728 l 1,43,-1
 191 750 l 1,0,-1
EndSplineSet
EndChar

StartChar: X
Encoding: 88 88 26
Width: 1000
LayerCount: 2
Fore
SplineSet
191 750 m 1,0,-1
 279 750 l 1,1,-1
 279 728 l 1,2,-1
 324 728 l 1,3,-1
 324 684 l 1,4,-1
 346 684 l 1,5,-1
 346 640 l 1,6,-1
 368 640 l 1,7,-1
 368 596 l 1,8,-1
 390 596 l 1,9,-1
 390 574 l 1,10,-1
 412 574 l 1,11,-1
 412 551 l 1,12,-1
 434 551 l 1,13,-1
 434 529 l 1,14,-1
 478 529 l 1,15,-1
 478 507 l 1,16,-1
 522 507 l 1,17,-1
 522 529 l 1,18,-1
 566 529 l 1,19,-1
 566 551 l 1,20,-1
 588 551 l 1,21,-1
 588 574 l 1,22,-1
 610 574 l 1,23,-1
 610 596 l 1,24,-1
 632 596 l 1,25,-1
 632 640 l 1,26,-1
 654 640 l 1,27,-1
 654 684 l 1,28,-1
 676 684 l 1,29,-1
 676 728 l 1,30,-1
 721 728 l 1,31,-1
 721 750 l 1,32,-1
 809 750 l 1,33,-1
 809 728 l 1,34,-1
 853 728 l 1,35,-1
 853 684 l 1,36,-1
 875 684 l 1,37,-1
 875 507 l 1,38,-1
 853 507 l 1,39,-1
 853 463 l 1,40,-1
 831 463 l 1,41,-1
 831 441 l 1,42,-1
 809 441 l 1,43,-1
 809 419 l 1,44,-1
 787 419 l 1,45,-1
 787 397 l 1,46,-1
 765 397 l 1,47,-1
 765 353 l 1,48,-1
 787 353 l 1,49,-1
 787 331 l 1,50,-1
 809 331 l 1,51,-1
 809 309 l 1,52,-1
 831 309 l 1,53,-1
 831 287 l 1,54,-1
 853 287 l 1,55,-1
 853 243 l 1,56,-1
 875 243 l 1,57,-1
 875 66 l 1,58,-1
 853 66 l 1,59,-1
 853 22 l 1,60,-1
 809 22 l 1,61,-1
 809 0 l 1,62,-1
 721 0 l 1,63,-1
 721 22 l 1,64,-1
 676 22 l 1,65,-1
 676 66 l 1,66,-1
 654 66 l 1,67,-1
 654 110 l 1,68,-1
 632 110 l 1,69,-1
 632 154 l 1,70,-1
 610 154 l 1,71,-1
 610 176 l 1,72,-1
 588 176 l 1,73,-1
 588 199 l 1,74,-1
 566 199 l 1,75,-1
 566 221 l 1,76,-1
 522 221 l 1,77,-1
 522 243 l 1,78,-1
 478 243 l 1,79,-1
 478 221 l 1,80,-1
 434 221 l 1,81,-1
 434 199 l 1,82,-1
 412 199 l 1,83,-1
 412 176 l 1,84,-1
 390 176 l 1,85,-1
 390 154 l 1,86,-1
 368 154 l 1,87,-1
 368 110 l 1,88,-1
 346 110 l 1,89,-1
 346 66 l 1,90,-1
 324 66 l 1,91,-1
 324 22 l 1,92,-1
 279 22 l 1,93,-1
 279 0 l 1,94,-1
 191 0 l 1,95,-1
 191 22 l 1,96,-1
 147 22 l 1,97,-1
 147 66 l 1,98,-1
 125 66 l 1,99,-1
 125 243 l 1,100,-1
 147 243 l 1,101,-1
 147 287 l 1,102,-1
 169 287 l 1,103,-1
 169 309 l 1,104,-1
 191 309 l 1,105,-1
 191 331 l 1,106,-1
 213 331 l 1,107,-1
 213 353 l 1,108,-1
 235 353 l 1,109,-1
 235 397 l 1,110,-1
 213 397 l 1,111,-1
 213 419 l 1,112,-1
 191 419 l 1,113,-1
 191 441 l 1,114,-1
 169 441 l 1,115,-1
 169 463 l 1,116,-1
 147 463 l 1,117,-1
 147 507 l 1,118,-1
 125 507 l 1,119,-1
 125 684 l 1,120,-1
 147 684 l 1,121,-1
 147 728 l 1,122,-1
 191 728 l 1,123,-1
 191 750 l 1,0,-1
EndSplineSet
EndChar

StartChar: Y
Encoding: 89 89 27
Width: 1000
LayerCount: 2
Fore
SplineSet
191 750 m 1,0,-1
 279 750 l 1,1,-1
 279 728 l 1,2,-1
 324 728 l 1,3,-1
 324 684 l 1,4,-1
 346 684 l 1,5,-1
 346 640 l 1,6,-1
 368 640 l 1,7,-1
 368 596 l 1,8,-1
 390 596 l 1,9,-1
 390 574 l 1,10,-1
 412 574 l 1,11,-1
 412 551 l 1,12,-1
 434 551 l 1,13,-1
 434 529 l 1,14,-1
 478 529 l 1,15,-1
 478 507 l 1,16,-1
 522 507 l 1,17,-1
 522 529 l 1,18,-1
 566 529 l 1,19,-1
 566 551 l 1,20,-1
 588 551 l 1,21,-1
 588 574 l 1,22,-1
 610 574 l 1,23,-1
 610 596 l 1,24,-1
 632 596 l 1,25,-1
 632 640 l 1,26,-1
 654 640 l 1,27,-1
 654 684 l 1,28,-1
 676 684 l 1,29,-1
 676 728 l 1,30,-1
 721 728 l 1,31,-1
 721 750 l 1,32,-1
 809 750 l 1,33,-1
 809 728 l 1,34,-1
 853 728 l 1,35,-1
 853 684 l 1,36,-1
 875 684 l 1,37,-1
 875 507 l 1,38,-1
 853 507 l 1,39,-1
 853 463 l 1,40,-1
 831 463 l 1,41,-1
 831 441 l 1,42,-1
 809 441 l 1,43,-1
 809 419 l 1,44,-1
 787 419 l 1,45,-1
 787 397 l 1,46,-1
 765 397 l 1,47,-1
 765 375 l 1,48,-1
 743 375 l 1,49,-1
 743 353 l 1,50,-1
 721 353 l 1,51,-1
 721 331 l 1,52,-1
 699 331 l 1,53,-1
 699 309 l 1,54,-1
 676 309 l 1,55,-1
 676 287 l 1,56,-1
 654 287 l 1,57,-1
 654 265 l 1,58,-1
 632 265 l 1,59,-1
 632 221 l 1,60,-1
 610 221 l 1,61,-1
 610 66 l 1,62,-1
 588 66 l 1,63,-1
 588 22 l 1,64,-1
 544 22 l 1,65,-1
 544 0 l 1,66,-1
 456 0 l 1,67,-1
 456 22 l 1,68,-1
 412 22 l 1,69,-1
 412 66 l 1,70,-1
 390 66 l 1,71,-1
 390 221 l 1,72,-1
 368 221 l 1,73,-1
 368 265 l 1,74,-1
 346 265 l 1,75,-1
 346 287 l 1,76,-1
 324 287 l 1,77,-1
 324 309 l 1,78,-1
 302 309 l 1,79,-1
 302 331 l 1,80,-1
 279 331 l 1,81,-1
 279 353 l 1,82,-1
 257 353 l 1,83,-1
 257 375 l 1,84,-1
 235 375 l 1,85,-1
 235 397 l 1,86,-1
 213 397 l 1,87,-1
 213 419 l 1,88,-1
 191 419 l 1,89,-1
 191 441 l 1,90,-1
 169 441 l 1,91,-1
 169 463 l 1,92,-1
 147 463 l 1,93,-1
 147 507 l 1,94,-1
 125 507 l 1,95,-1
 125 684 l 1,96,-1
 147 684 l 1,97,-1
 147 728 l 1,98,-1
 191 728 l 1,99,-1
 191 750 l 1,0,-1
EndSplineSet
EndChar

StartChar: Z
Encoding: 90 90 28
Width: 1000
LayerCount: 2
Fore
SplineSet
191 750 m 1,0,-1
 809 750 l 1,1,-1
 809 728 l 1,2,-1
 853 728 l 1,3,-1
 853 684 l 1,4,-1
 875 684 l 1,5,-1
 875 551 l 1,6,-1
 853 551 l 1,7,-1
 853 507 l 1,8,-1
 831 507 l 1,9,-1
 831 485 l 1,10,-1
 787 485 l 1,11,-1
 787 463 l 1,12,-1
 765 463 l 1,13,-1
 765 441 l 1,14,-1
 743 441 l 1,15,-1
 743 419 l 1,16,-1
 699 419 l 1,17,-1
 699 397 l 1,18,-1
 676 397 l 1,19,-1
 676 375 l 1,20,-1
 654 375 l 1,21,-1
 654 353 l 1,22,-1
 610 353 l 1,23,-1
 610 331 l 1,24,-1
 588 331 l 1,25,-1
 588 309 l 1,26,-1
 566 309 l 1,27,-1
 566 287 l 1,28,-1
 544 287 l 1,29,-1
 544 243 l 1,30,-1
 566 243 l 1,31,-1
 566 221 l 1,32,-1
 809 221 l 1,33,-1
 809 199 l 1,34,-1
 853 199 l 1,35,-1
 853 154 l 1,36,-1
 875 154 l 1,37,-1
 875 66 l 1,38,-1
 853 66 l 1,39,-1
 853 22 l 1,40,-1
 809 22 l 1,41,-1
 809 0 l 1,42,-1
 191 0 l 1,43,-1
 191 22 l 1,44,-1
 147 22 l 1,45,-1
 147 66 l 1,46,-1
 125 66 l 1,47,-1
 125 199 l 1,48,-1
 147 199 l 1,49,-1
 147 243 l 1,50,-1
 169 243 l 1,51,-1
 169 265 l 1,52,-1
 213 265 l 1,53,-1
 213 287 l 1,54,-1
 235 287 l 1,55,-1
 235 309 l 1,56,-1
 257 309 l 1,57,-1
 257 331 l 1,58,-1
 301 331 l 1,59,-1
 301 353 l 1,60,-1
 324 353 l 1,61,-1
 324 375 l 1,62,-1
 346 375 l 1,63,-1
 346 397 l 1,64,-1
 390 397 l 1,65,-1
 390 419 l 1,66,-1
 412 419 l 1,67,-1
 412 441 l 1,68,-1
 434 441 l 1,69,-1
 434 463 l 1,70,-1
 456 463 l 1,71,-1
 456 507 l 1,72,-1
 434 507 l 1,73,-1
 434 529 l 1,74,-1
 191 529 l 1,75,-1
 191 551 l 1,76,-1
 147 551 l 1,77,-1
 147 596 l 1,78,-1
 125 596 l 1,79,-1
 125 684 l 1,80,-1
 147 684 l 1,81,-1
 147 728 l 1,82,-1
 191 728 l 1,83,-1
 191 750 l 1,0,-1
EndSplineSet
EndChar

StartChar: zero
Encoding: 48 48 29
Width: 1000
Flags: W
LayerCount: 2
Fore
SplineSet
191.211914062 749.953125 m 1,0,-1
 808.788085938 749.953125 l 1,1,-1
 808.788085938 727.903320312 l 1,2,-1
 852.8984375 727.903320312 l 1,3,-1
 852.8984375 683.79296875 l 1,4,-1
 874.948242188 683.79296875 l 1,5,-1
 874.948242188 66.2109375 l 1,6,-1
 852.8984375 66.2109375 l 1,7,-1
 852.8984375 22.1005859375 l 1,8,-1
 808.788085938 22.1005859375 l 1,9,-1
 808.788085938 0.05078125 l 1,10,-1
 191.211914062 0.05078125 l 1,11,-1
 191.211914062 22.1005859375 l 1,12,-1
 147.1015625 22.1005859375 l 1,13,-1
 147.1015625 66.2109375 l 1,14,-1
 125.051757812 66.2109375 l 1,15,-1
 125.051757812 683.787109375 l 1,16,-1
 147.1015625 683.787109375 l 1,17,-1
 147.1015625 727.897460938 l 1,18,-1
 191.211914062 727.897460938 l 1,19,-1
 191.211914062 749.953125 l 1,0,-1
367.663085938 529.392578125 m 1,20,-1
 367.663085938 507.341796875 l 1,21,-1
 345.612304688 507.341796875 l 1,22,-1
 345.612304688 242.66796875 l 1,23,-1
 367.663085938 242.66796875 l 1,24,-1
 367.663085938 220.6171875 l 1,25,-1
 632.336914062 220.6171875 l 1,26,-1
 632.336914062 242.66796875 l 1,27,-1
 654.387695312 242.66796875 l 1,28,-1
 654.387695312 507.3359375 l 1,29,-1
 632.336914062 507.3359375 l 1,30,-1
 632.336914062 529.38671875 l 1,31,-1
 367.663085938 529.392578125 l 1,20,-1
EndSplineSet
EndChar

StartChar: one
Encoding: 49 49 30
Width: 633
Flags: WO
LayerCount: 2
Fore
SplineSet
291 761 m 5,0,-1
 445 761 l 5,1,-1
 445 740 l 5,2,-1
 487 740 l 5,3,-1
 487 698 l 5,4,-1
 508 698 l 5,5,-1
 508 63 l 5,6,-1
 487 63 l 5,7,-1
 487 21 l 5,8,-1
 445 21 l 5,9,-1
 445 0 l 5,10,-1
 333 0 l 5,11,-1
 333 21 l 5,12,-1
 291 21 l 5,13,-1
 291 63 l 5,14,-1
 271 63 l 5,15,-1
 271 511 l 5,16,-1
 250 511 l 5,17,-1
 250 532 l 5,18,-1
 146 532 l 5,19,-1
 146 553 l 5,20,-1
 125 553 l 5,21,-1
 125 615 l 5,22,-1
 146 615 l 5,23,-1
 146 636 l 5,24,-1
 167 636 l 5,25,-1
 167 657 l 5,26,-1
 187 657 l 5,27,-1
 187 677 l 5,28,-1
 208 677 l 5,29,-1
 208 698 l 5,30,-1
 229 698 l 5,31,-1
 229 719 l 5,32,-1
 250 719 l 5,33,-1
 250 740 l 5,34,-1
 291 740 l 5,35,-1
 291 761 l 5,0,-1
EndSplineSet
EndChar

StartChar: two
Encoding: 50 50 31
Width: 1000
HStem: 0 221<346 809> 265 220<346 654> 529 221<191 654>
CounterMasks: 1 e0
LayerCount: 2
Fore
SplineSet
191 750 m 1,0,-1
 809 750 l 1,1,-1
 809 728 l 1,2,-1
 853 728 l 1,3,-1
 853 684 l 1,4,-1
 875 684 l 1,5,-1
 875 331 l 1,6,-1
 853 331 l 1,7,-1
 853 287 l 1,8,-1
 809 287 l 1,9,-1
 809 265 l 1,10,-1
 346 265 l 1,11,-1
 346 221 l 1,12,-1
 809 221 l 1,13,-1
 809 199 l 1,14,-1
 853 199 l 1,15,-1
 853 154 l 1,16,-1
 875 154 l 1,17,-1
 875 66 l 1,18,-1
 853 66 l 1,19,-1
 853 22 l 1,20,-1
 809 22 l 1,21,-1
 809 0 l 1,22,-1
 191 0 l 1,23,-1
 191 22 l 1,24,-1
 147 22 l 1,25,-1
 147 66 l 1,26,-1
 125 66 l 1,27,-1
 125 419 l 1,28,-1
 147 419 l 1,29,-1
 147 463 l 1,30,-1
 191 463 l 1,31,-1
 191 485 l 1,32,-1
 654 485 l 1,33,-1
 654 529 l 1,34,-1
 191 529 l 1,35,-1
 191 551 l 1,36,-1
 147 551 l 1,37,-1
 147 596 l 1,38,-1
 125 596 l 1,39,-1
 125 684 l 1,40,-1
 147 684 l 1,41,-1
 147 728 l 1,42,-1
 191 728 l 1,43,-1
 191 750 l 1,0,-1
EndSplineSet
EndChar

StartChar: three
Encoding: 51 51 32
Width: 1000
LayerCount: 2
Fore
SplineSet
191 750 m 1,0,-1
 809 750 l 1,1,-1
 809 728 l 1,2,-1
 853 728 l 1,3,-1
 853 684 l 1,4,-1
 875 684 l 1,5,-1
 875 66 l 1,6,-1
 853 66 l 1,7,-1
 853 22 l 1,8,-1
 809 22 l 1,9,-1
 809 0 l 1,10,-1
 191 0 l 1,11,-1
 191 22 l 1,12,-1
 147 22 l 1,13,-1
 147 66 l 1,14,-1
 125 66 l 1,15,-1
 125 154 l 1,16,-1
 147 154 l 1,17,-1
 147 199 l 1,18,-1
 191 199 l 1,19,-1
 191 221 l 1,20,-1
 654 221 l 1,21,-1
 654 265 l 1,22,-1
 390 265 l 1,23,-1
 390 287 l 1,24,-1
 346 287 l 1,25,-1
 346 331 l 1,26,-1
 324 331 l 1,27,-1
 324 419 l 1,28,-1
 346 419 l 1,29,-1
 346 463 l 1,30,-1
 390 463 l 1,31,-1
 390 485 l 1,32,-1
 654 485 l 1,33,-1
 654 529 l 1,34,-1
 191 529 l 1,35,-1
 191 551 l 1,36,-1
 147 551 l 1,37,-1
 147 596 l 1,38,-1
 125 596 l 1,39,-1
 125 684 l 1,40,-1
 147 684 l 1,41,-1
 147 728 l 1,42,-1
 191 728 l 1,43,-1
 191 750 l 1,0,-1
EndSplineSet
EndChar

StartChar: four
Encoding: 52 52 33
Width: 1000
LayerCount: 2
Fore
SplineSet
191 750 m 1,0,-1
 279 750 l 1,1,-1
 279 728 l 1,2,-1
 324 728 l 1,3,-1
 324 684 l 1,4,-1
 346 684 l 1,5,-1
 346 485 l 1,6,-1
 390 485 l 1,7,-1
 390 684 l 1,8,-1
 412 684 l 1,9,-1
 412 728 l 1,10,-1
 456 728 l 1,11,-1
 456 750 l 1,12,-1
 544 750 l 1,13,-1
 544 728 l 1,14,-1
 588 728 l 1,15,-1
 588 684 l 1,16,-1
 610 684 l 1,17,-1
 610 507 l 1,18,-1
 632 507 l 1,19,-1
 632 485 l 1,20,-1
 809 485 l 1,21,-1
 809 463 l 1,22,-1
 853 463 l 1,23,-1
 853 419 l 1,24,-1
 875 419 l 1,25,-1
 875 331 l 1,26,-1
 853 331 l 1,27,-1
 853 287 l 1,28,-1
 809 287 l 1,29,-1
 809 265 l 1,30,-1
 632 265 l 1,31,-1
 632 243 l 1,32,-1
 610 243 l 1,33,-1
 610 66 l 1,34,-1
 588 66 l 1,35,-1
 588 22 l 1,36,-1
 544 22 l 1,37,-1
 544 0 l 1,38,-1
 456 0 l 1,39,-1
 456 22 l 1,40,-1
 412 22 l 1,41,-1
 412 66 l 1,42,-1
 390 66 l 1,43,-1
 390 243 l 1,44,-1
 368 243 l 1,45,-1
 368 265 l 1,46,-1
 191 265 l 1,47,-1
 191 287 l 1,48,-1
 147 287 l 1,49,-1
 147 331 l 1,50,-1
 125 331 l 1,51,-1
 125 684 l 1,52,-1
 147 684 l 1,53,-1
 147 728 l 1,54,-1
 191 728 l 1,55,-1
 191 750 l 1,0,-1
EndSplineSet
EndChar

StartChar: five
Encoding: 53 53 34
Width: 1000
LayerCount: 2
Fore
SplineSet
191 750 m 1,0,-1
 809 750 l 1,1,-1
 809 728 l 1,2,-1
 853 728 l 1,3,-1
 853 684 l 1,4,-1
 875 684 l 1,5,-1
 875 596 l 1,6,-1
 853 596 l 1,7,-1
 853 551 l 1,8,-1
 809 551 l 1,9,-1
 809 529 l 1,10,-1
 346 529 l 1,11,-1
 346 485 l 1,12,-1
 809 485 l 1,13,-1
 809 463 l 1,14,-1
 853 463 l 1,15,-1
 853 419 l 1,16,-1
 875 419 l 1,17,-1
 875 66 l 1,18,-1
 853 66 l 1,19,-1
 853 22 l 1,20,-1
 809 22 l 1,21,-1
 809 0 l 1,22,-1
 191 0 l 1,23,-1
 191 22 l 1,24,-1
 147 22 l 1,25,-1
 147 66 l 1,26,-1
 125 66 l 1,27,-1
 125 154 l 1,28,-1
 147 154 l 1,29,-1
 147 199 l 1,30,-1
 191 199 l 1,31,-1
 191 221 l 1,32,-1
 654 221 l 1,33,-1
 654 265 l 1,34,-1
 191 265 l 1,35,-1
 191 287 l 1,36,-1
 147 287 l 1,37,-1
 147 331 l 1,38,-1
 125 331 l 1,39,-1
 125 684 l 1,40,-1
 147 684 l 1,41,-1
 147 728 l 1,42,-1
 191 728 l 1,43,-1
 191 750 l 1,0,-1
EndSplineSet
EndChar

StartChar: six
Encoding: 54 54 35
Width: 1000
LayerCount: 2
Fore
SplineSet
191 750 m 1,0,-1
 809 750 l 1,1,-1
 809 728 l 1,2,-1
 853 728 l 1,3,-1
 853 684 l 1,4,-1
 875 684 l 1,5,-1
 875 596 l 1,6,-1
 853 596 l 1,7,-1
 853 551 l 1,8,-1
 809 551 l 1,9,-1
 809 529 l 1,10,-1
 346 529 l 1,11,-1
 346 485 l 1,12,-1
 809 485 l 1,13,-1
 809 463 l 1,14,-1
 853 463 l 1,15,-1
 853 419 l 1,16,-1
 875 419 l 1,17,-1
 875 66 l 1,18,-1
 853 66 l 1,19,-1
 853 22 l 1,20,-1
 809 22 l 1,21,-1
 809 0 l 1,22,-1
 191 0 l 1,23,-1
 191 22 l 1,24,-1
 147 22 l 1,25,-1
 147 66 l 1,26,-1
 125 66 l 1,27,-1
 125 684 l 1,28,-1
 147 684 l 1,29,-1
 147 728 l 1,30,-1
 191 728 l 1,31,-1
 191 750 l 1,0,-1
346 265 m 1,32,-1
 346 221 l 1,33,-1
 654 221 l 1,34,-1
 654 265 l 1,35,-1
 346 265 l 1,32,-1
EndSplineSet
EndChar

StartChar: seven
Encoding: 55 55 36
Width: 1000
LayerCount: 2
Fore
SplineSet
191 750 m 1,0,-1
 809 750 l 1,1,-1
 809 728 l 1,2,-1
 853 728 l 1,3,-1
 853 684 l 1,4,-1
 875 684 l 1,5,-1
 875 574 l 1,6,-1
 853 574 l 1,7,-1
 853 529 l 1,8,-1
 831 529 l 1,9,-1
 831 507 l 1,10,-1
 809 507 l 1,11,-1
 809 485 l 1,12,-1
 787 485 l 1,13,-1
 787 463 l 1,14,-1
 765 463 l 1,15,-1
 765 441 l 1,16,-1
 743 441 l 1,17,-1
 743 419 l 1,18,-1
 721 419 l 1,19,-1
 721 397 l 1,20,-1
 699 397 l 1,21,-1
 699 375 l 1,22,-1
 676 375 l 1,23,-1
 676 353 l 1,24,-1
 654 353 l 1,25,-1
 654 331 l 1,26,-1
 632 331 l 1,27,-1
 632 287 l 1,28,-1
 610 287 l 1,29,-1
 610 66 l 1,30,-1
 588 66 l 1,31,-1
 588 22 l 1,32,-1
 544 22 l 1,33,-1
 544 0 l 1,34,-1
 456 0 l 1,35,-1
 456 22 l 1,36,-1
 412 22 l 1,37,-1
 412 66 l 1,38,-1
 390 66 l 1,39,-1
 390 331 l 1,40,-1
 412 331 l 1,41,-1
 412 375 l 1,42,-1
 434 375 l 1,43,-1
 434 397 l 1,44,-1
 456 397 l 1,45,-1
 456 419 l 1,46,-1
 478 419 l 1,47,-1
 478 441 l 1,48,-1
 500 441 l 1,49,-1
 500 463 l 1,50,-1
 522 463 l 1,51,-1
 522 507 l 1,52,-1
 478 507 l 1,53,-1
 478 529 l 1,54,-1
 191 529 l 1,55,-1
 191 551 l 1,56,-1
 147 551 l 1,57,-1
 147 596 l 1,58,-1
 125 596 l 1,59,-1
 125 684 l 1,60,-1
 147 684 l 1,61,-1
 147 728 l 1,62,-1
 191 728 l 1,63,-1
 191 750 l 1,0,-1
EndSplineSet
EndChar

StartChar: eight
Encoding: 56 56 37
Width: 1000
LayerCount: 2
Fore
SplineSet
191 750 m 1,0,-1
 809 750 l 1,1,-1
 809 728 l 1,2,-1
 853 728 l 1,3,-1
 853 684 l 1,4,-1
 875 684 l 1,5,-1
 875 441 l 1,6,-1
 853 441 l 1,7,-1
 853 397 l 1,8,-1
 831 397 l 1,9,-1
 831 353 l 1,10,-1
 853 353 l 1,11,-1
 853 309 l 1,12,-1
 875 309 l 1,13,-1
 875 66 l 1,14,-1
 853 66 l 1,15,-1
 853 22 l 1,16,-1
 809 22 l 1,17,-1
 809 0 l 1,18,-1
 191 0 l 1,19,-1
 191 22 l 1,20,-1
 147 22 l 1,21,-1
 147 66 l 1,22,-1
 125 66 l 1,23,-1
 125 309 l 1,24,-1
 147 309 l 1,25,-1
 147 353 l 1,26,-1
 169 353 l 1,27,-1
 169 397 l 1,28,-1
 147 397 l 1,29,-1
 147 441 l 1,30,-1
 125 441 l 1,31,-1
 125 684 l 1,32,-1
 147 684 l 1,33,-1
 147 728 l 1,34,-1
 191 728 l 1,35,-1
 191 750 l 1,0,-1
346 529 m 1,36,-1
 346 485 l 1,37,-1
 654 485 l 1,38,-1
 654 529 l 1,39,-1
 346 529 l 1,36,-1
346 265 m 1,40,-1
 346 221 l 1,41,-1
 654 221 l 1,42,-1
 654 265 l 1,43,-1
 346 265 l 1,40,-1
EndSplineSet
EndChar

StartChar: nine
Encoding: 57 57 38
Width: 1000
LayerCount: 2
Fore
SplineSet
191 750 m 1,0,-1
 809 750 l 1,1,-1
 809 728 l 1,2,-1
 853 728 l 1,3,-1
 853 684 l 1,4,-1
 875 684 l 1,5,-1
 875 66 l 1,6,-1
 853 66 l 1,7,-1
 853 22 l 1,8,-1
 809 22 l 1,9,-1
 809 0 l 1,10,-1
 721 0 l 1,11,-1
 721 22 l 1,12,-1
 676 22 l 1,13,-1
 676 66 l 1,14,-1
 654 66 l 1,15,-1
 654 176 l 1,16,-1
 632 176 l 1,17,-1
 632 199 l 1,18,-1
 191 199 l 1,19,-1
 191 221 l 1,20,-1
 147 221 l 1,21,-1
 147 265 l 1,22,-1
 125 265 l 1,23,-1
 125 684 l 1,24,-1
 147 684 l 1,25,-1
 147 728 l 1,26,-1
 191 728 l 1,27,-1
 191 750 l 1,0,-1
368 529 m 1,28,-1
 368 507 l 1,29,-1
 346 507 l 1,30,-1
 346 441 l 1,31,-1
 368 441 l 1,32,-1
 368 419 l 1,33,-1
 632 419 l 1,34,-1
 632 441 l 1,35,-1
 654 441 l 1,36,-1
 654 507 l 1,37,-1
 632 507 l 1,38,-1
 632 529 l 1,39,-1
 368 529 l 1,28,-1
EndSplineSet
EndChar
